<?xml version="1.0" encoding="utf-8"?>
<!-- Generator: Adobe Illustrator 26.0.0, SVG Export Plug-In . SVG Version: 6.00 Build 0)  -->
<svg version="1.1" id="Layer_1" xmlns="http://www.w3.org/2000/svg" xmlns:xlink="http://www.w3.org/1999/xlink" x="0px" y="0px"
	 viewBox="0 0 100 50" style="enable-background:new 0 0 100 50;" xml:space="preserve">
<style type="text/css">
	.st0{fill:#FF5100;}
</style>
<g>
	<path class="st0" d="M19.71,10.71h-0.14h-5.1h-0.14L5,36.07h5.25l6.77-18.42l5.18,14.09h-7.04c2.02,0.85,3.82,2.27,5.4,4.33h3.23
		h0.13h5.12L19.71,10.71z"/>
	<path class="st0" d="M40.18,31.75C40.18,31.74,40.18,31.74,40.18,31.75l-3.18,0h-0.9c-0.87,0-1.58-0.71-1.58-1.58v-1.35V10.72
		c0-0.01,0-0.01-0.01-0.01h-4.9c-0.01,0-0.01,0-0.01,0.01v21.43c0,0.06,0,0.13,0,0.19c0,0.06,0,0.13,0,0.19
		c0.01,0.14,0.02,0.27,0.04,0.4c0.27,1.7,1.69,3.01,3.43,3.13c0.08,0.01,0.16,0.01,0.25,0.01h15.82c0.01,0,0.01-0.02,0-0.02
		C45.41,35.48,42.22,34.29,40.18,31.75"/>
	<rect x="64.96" y="10.72" class="st0" width="4.92" height="25.35"/>
	<path class="st0" d="M78.25,19.82v-3.36c0-0.78,0.63-1.41,1.41-1.41h10.31v-4.33H78.45c-2.83,0-5.13,2.29-5.13,5.13v4.59
		c0,2.83,2.29,5.13,5.13,5.13h5.91c0.78,0,1.41,0.63,1.41,1.41v3.36c0,0.78-0.63,1.41-1.41,1.41H74.01v4.33h11.56
		c2.83,0,5.13-2.3,5.13-5.13v-4.59c0-2.83-2.29-5.13-5.13-5.13h-5.91C78.88,21.23,78.25,20.6,78.25,19.82"/>
	<polygon class="st0" points="92.34,5.69 87.04,5.69 87.04,8.35 92.34,8.35 92.34,13.65 95,13.65 95,8.35 95,5.69 	"/>
	<path class="st0" d="M50.71,10.69c3.47,0,6.33,1.12,8.58,3.36c2.24,2.24,3.37,5.1,3.37,8.58c0,3.5-1.12,6.37-3.35,8.6
		c-2.23,2.23-5.1,3.34-8.6,3.34c-3.46,0-6.32-1.12-8.58-3.37c-2.26-2.25-3.39-5.1-3.39-8.57c0-3.49,1.12-6.35,3.36-8.59
		C44.34,11.81,47.21,10.69,50.71,10.69 M50.7,14.82c-1.68,0-6.69,1.28-6.69,7.82s4.64,7.73,6.69,7.73c2.05,0,6.57-1.33,6.57-7.75
		C57.27,16.21,52.37,14.82,50.7,14.82"/>
	<g>
		<path d="M51.42,44.28c-0.25-0.02-0.46-0.05-0.63-0.09v-0.56c0.35,0.03,0.77,0.05,1.29,0.05c0.26,0,0.45-0.04,0.59-0.11
			c0.13-0.07,0.2-0.21,0.2-0.4v-0.2c0-0.15-0.04-0.27-0.13-0.35c-0.08-0.08-0.21-0.12-0.37-0.12h-0.4c-0.4,0-0.71-0.09-0.91-0.27
			c-0.2-0.18-0.3-0.46-0.3-0.86v-0.22c0-0.4,0.11-0.69,0.33-0.88c0.22-0.19,0.55-0.28,0.99-0.28c0.2,0,0.42,0.01,0.65,0.04
			c0.24,0.03,0.44,0.06,0.61,0.09v0.56c-0.52-0.03-0.91-0.05-1.18-0.05c-0.24,0-0.42,0.04-0.54,0.12c-0.12,0.08-0.18,0.22-0.18,0.44
			v0.14c0,0.17,0.05,0.3,0.14,0.37c0.09,0.08,0.24,0.12,0.43,0.12h0.44c0.36,0,0.63,0.1,0.82,0.29c0.19,0.19,0.28,0.45,0.28,0.77
			v0.27c0,0.44-0.12,0.75-0.37,0.91c-0.25,0.17-0.6,0.25-1.06,0.25C51.9,44.31,51.67,44.3,51.42,44.28z"/>
		<path d="M56.06,44.15c-0.24-0.11-0.42-0.32-0.55-0.63c-0.12-0.31-0.18-0.76-0.18-1.36c0-0.6,0.06-1.05,0.19-1.37
			c0.12-0.32,0.31-0.53,0.55-0.64c0.24-0.11,0.57-0.17,0.97-0.17c0.41,0,0.74,0.06,0.98,0.17c0.24,0.11,0.43,0.33,0.55,0.64
			c0.12,0.31,0.18,0.77,0.18,1.37c0,0.6-0.06,1.05-0.19,1.36c-0.12,0.31-0.31,0.52-0.55,0.63c-0.24,0.11-0.57,0.16-0.98,0.16
			C56.63,44.31,56.3,44.26,56.06,44.15z M57.65,43.56c0.14-0.08,0.24-0.22,0.3-0.44c0.06-0.21,0.09-0.53,0.09-0.96
			c0-0.44-0.03-0.77-0.1-0.99s-0.16-0.37-0.3-0.44c-0.14-0.07-0.34-0.11-0.61-0.11c-0.26,0-0.46,0.04-0.59,0.11
			s-0.24,0.22-0.31,0.44c-0.07,0.22-0.1,0.55-0.1,0.99c0,0.43,0.03,0.75,0.09,0.96c0.06,0.21,0.16,0.36,0.3,0.43
			c0.14,0.08,0.34,0.12,0.61,0.12C57.31,43.67,57.51,43.63,57.65,43.56z"/>
		<path d="M60.9,44.05c-0.16-0.15-0.24-0.39-0.24-0.73v-3.3h0.71v3.19c0,0.16,0.04,0.27,0.11,0.33c0.07,0.06,0.18,0.09,0.31,0.09
			h1.41v0.65h-1.59C61.29,44.28,61.06,44.2,60.9,44.05z"/>
		<path d="M65.22,44c-0.28-0.2-0.42-0.56-0.42-1.08v-2.9h0.71v2.9c0,0.27,0.08,0.46,0.23,0.57c0.15,0.11,0.38,0.17,0.69,0.17
			c0.3,0,0.53-0.06,0.69-0.17c0.15-0.11,0.23-0.3,0.23-0.57v-2.9h0.71v2.9c0,0.52-0.14,0.88-0.42,1.08c-0.28,0.2-0.68,0.3-1.21,0.3
			C65.9,44.3,65.5,44.2,65.22,44z"/>
		<path d="M70.92,40.66H69.7v-0.64h3.15v0.64h-1.22v3.62h-0.71V40.66z"/>
		<path d="M74.55,40.02h0.71v4.26h-0.71V40.02z"/>
		<path d="M77.89,44.15c-0.24-0.11-0.42-0.32-0.55-0.63c-0.12-0.31-0.18-0.76-0.18-1.36c0-0.6,0.06-1.05,0.19-1.37
			c0.12-0.32,0.31-0.53,0.55-0.64c0.24-0.11,0.57-0.17,0.97-0.17c0.41,0,0.74,0.06,0.98,0.17c0.24,0.11,0.43,0.33,0.55,0.64
			c0.12,0.31,0.18,0.77,0.18,1.37c0,0.6-0.06,1.05-0.19,1.36c-0.12,0.31-0.31,0.52-0.55,0.63c-0.24,0.11-0.57,0.16-0.98,0.16
			C78.46,44.31,78.13,44.26,77.89,44.15z M79.48,43.56c0.14-0.08,0.24-0.22,0.3-0.44c0.06-0.21,0.09-0.53,0.09-0.96
			c0-0.44-0.03-0.77-0.1-0.99s-0.16-0.37-0.3-0.44c-0.14-0.07-0.34-0.11-0.61-0.11c-0.26,0-0.46,0.04-0.59,0.11
			s-0.24,0.22-0.31,0.44c-0.07,0.22-0.1,0.55-0.1,0.99c0,0.43,0.03,0.75,0.09,0.96c0.06,0.21,0.16,0.36,0.3,0.43
			c0.14,0.08,0.34,0.12,0.61,0.12C79.14,43.67,79.34,43.63,79.48,43.56z"/>
		<path d="M82.53,40.02h0.57l1.94,3.04v-3.04h0.71v4.26h-0.57l-1.94-3.04v3.04h-0.72V40.02z"/>
		<path d="M88.28,44.28c-0.25-0.02-0.46-0.05-0.63-0.09v-0.56c0.35,0.03,0.77,0.05,1.29,0.05c0.26,0,0.45-0.04,0.59-0.11
			c0.13-0.07,0.2-0.21,0.2-0.4v-0.2c0-0.15-0.04-0.27-0.13-0.35c-0.08-0.08-0.21-0.12-0.37-0.12h-0.4c-0.4,0-0.71-0.09-0.91-0.27
			c-0.2-0.18-0.3-0.46-0.3-0.86v-0.22c0-0.4,0.11-0.69,0.33-0.88c0.22-0.19,0.55-0.28,0.99-0.28c0.2,0,0.42,0.01,0.65,0.04
			c0.24,0.03,0.44,0.06,0.61,0.09v0.56c-0.52-0.03-0.91-0.05-1.18-0.05c-0.24,0-0.42,0.04-0.54,0.12c-0.12,0.08-0.18,0.22-0.18,0.44
			v0.14c0,0.17,0.05,0.3,0.14,0.37c0.09,0.08,0.24,0.12,0.43,0.12h0.44c0.36,0,0.63,0.1,0.82,0.29c0.19,0.19,0.28,0.45,0.28,0.77
			v0.27c0,0.44-0.12,0.75-0.37,0.91c-0.25,0.17-0.6,0.25-1.06,0.25C88.77,44.31,88.54,44.3,88.28,44.28z"/>
	</g>
</g>
<text transform="matrix(1 0 0 1 1742.0188 321.237)" style="font-family:'Exo-SemiBold'; font-size:92.2577px; letter-spacing:19;">SOLUTIONS</text>
</svg>
