<svg width="45" height="46" viewBox="0 0 45 46" fill="none" xmlns="http://www.w3.org/2000/svg">
<path d="M37.5051 12.2978C37.5051 11.2585 36.7706 10.5006 35.7235 10.5006H20.5404C20.3216 10.5006 20.2044 10.4537 20.0638 10.313L18.3056 8.55481L18.2899 8.53918C17.907 8.17973 17.5945 8 16.9381 8H9.4286C8.35024 8 7.49849 8.80487 7.49849 9.79727V15.5017H37.5051V12.2978ZM7.49849 17.6896H6.84991C5.84969 17.6896 4.87291 18.0882 5.01356 19.5885C5.15422 21.0888 6.84991 36.0531 6.84991 36.0531C7.06089 37.444 7.76417 38.0066 8.80347 38.0066H36.3486C37.341 38.0066 37.9896 37.3971 38.1459 36.0531C38.1459 36.0531 39.8807 21.6046 39.9901 19.9948C40.0995 18.3929 39.2946 17.6896 38.1459 17.6896H7.49849Z" fill="#FF5100"/>
</svg>
