<svg width="91" height="95" viewBox="0 0 91 95" fill="none" xmlns="http://www.w3.org/2000/svg">
<g clip-path="url(#clip0_424_1635)" filter="url(#filter0_d_424_1635)">
<g filter="url(#filter1_d_424_1635)">
<path d="M45.5 9.09998C40.6731 9.09998 36.0438 11.0175 32.6307 14.4306C29.2175 17.8438 27.3 22.473 27.3 27.3C27.3 32.1269 29.2175 36.7562 32.6307 40.1693C36.0438 43.5825 40.6731 45.5 45.5 45.5C50.3269 45.5 54.9562 43.5825 58.3694 40.1693C61.7825 36.7562 63.7 32.1269 63.7 27.3C63.7 22.473 61.7825 17.8438 58.3694 14.4306C54.9562 11.0175 50.3269 9.09998 45.5 9.09998ZM31.85 27.3C31.85 23.6798 33.2881 20.2078 35.848 17.648C38.4079 15.0881 41.8798 13.65 45.5 13.65C49.1202 13.65 52.5921 15.0881 55.152 17.648C57.7119 20.2078 59.15 23.6798 59.15 27.3C59.15 30.9202 57.7119 34.3921 55.152 36.952C52.5921 39.5119 49.1202 40.95 45.5 40.95C41.8798 40.95 38.4079 39.5119 35.848 36.952C33.2881 34.3921 31.85 30.9202 31.85 27.3ZM67.6358 76.4263C62.7627 79.534 56.4701 81.2675 49.6087 81.7544C49.2665 80.8508 48.7361 80.0303 48.0526 79.3474L46.0506 77.3454C53.7173 77.2726 60.4286 75.621 65.1879 72.5861C69.9654 69.5376 72.8 65.1105 72.8 59.15C72.8 57.9432 72.3206 56.7859 71.4673 55.9326C70.6141 55.0793 69.4567 54.6 68.25 54.6H39.7852C39.2168 52.9939 38.4494 51.4653 37.5011 50.05H68.25C70.6635 50.05 72.9781 51.0087 74.6847 52.7153C76.3913 54.4219 77.35 56.7365 77.35 59.15C77.35 66.844 73.5599 72.6453 67.6358 76.4263ZM20.475 77.35C24.0513 77.35 27.3546 76.167 30.0118 74.1786L41.6143 85.7811C41.8255 85.9926 42.0763 86.1605 42.3524 86.2751C42.6285 86.3897 42.9245 86.4488 43.2234 86.449C43.5223 86.4492 43.8184 86.3905 44.0946 86.2763C44.3709 86.1621 44.6219 85.9946 44.8334 85.7834C45.045 85.5722 45.2128 85.3214 45.3274 85.0453C45.442 84.7692 45.5011 84.4732 45.5013 84.1743C45.5015 83.8754 45.4428 83.5793 45.3286 83.3031C45.2144 83.0268 45.0469 82.7758 44.8357 82.5643L33.2332 70.9618C35.3809 68.0897 36.4962 64.5768 36.3987 60.9919C36.3012 57.407 34.9965 53.9599 32.6958 51.2089C30.3952 48.4578 27.2333 46.5638 23.7222 45.8336C20.2111 45.1034 16.5563 45.5796 13.3496 47.1853C10.1429 48.7909 7.57197 51.432 6.05319 54.6807C4.53441 57.9295 4.15666 61.5958 4.98111 65.086C5.80555 68.5762 7.78392 71.6859 10.5959 73.9117C13.4078 76.1375 16.8888 77.3489 20.475 77.35ZM20.475 72.8C17.4582 72.8 14.5649 71.6015 12.4317 69.4683C10.2984 67.3351 9.10001 64.4418 9.10001 61.425C9.10001 58.4081 10.2984 55.5149 12.4317 53.3816C14.5649 51.2484 17.4582 50.05 20.475 50.05C23.4918 50.05 26.3851 51.2484 28.5183 53.3816C30.6516 55.5149 31.85 58.4081 31.85 61.425C31.85 64.4418 30.6516 67.3351 28.5183 69.4683C26.3851 71.6015 23.4918 72.8 20.475 72.8Z" fill="#175572"/>
</g>
</g>
<defs>
<filter id="filter0_d_424_1635" x="-4" y="0" width="99" height="99" filterUnits="userSpaceOnUse" color-interpolation-filters="sRGB">
<feFlood flood-opacity="0" result="BackgroundImageFix"/>
<feColorMatrix in="SourceAlpha" type="matrix" values="0 0 0 0 0 0 0 0 0 0 0 0 0 0 0 0 0 0 127 0" result="hardAlpha"/>
<feOffset dy="4"/>
<feGaussianBlur stdDeviation="2"/>
<feComposite in2="hardAlpha" operator="out"/>
<feColorMatrix type="matrix" values="0 0 0 0 0 0 0 0 0 0 0 0 0 0 0 0 0 0 0.25 0"/>
<feBlend mode="normal" in2="BackgroundImageFix" result="effect1_dropShadow_424_1635"/>
<feBlend mode="normal" in="SourceGraphic" in2="effect1_dropShadow_424_1635" result="shape"/>
</filter>
<filter id="filter1_d_424_1635" x="0.554565" y="9.09998" width="80.7954" height="88.349" filterUnits="userSpaceOnUse" color-interpolation-filters="sRGB">
<feFlood flood-opacity="0" result="BackgroundImageFix"/>
<feColorMatrix in="SourceAlpha" type="matrix" values="0 0 0 0 0 0 0 0 0 0 0 0 0 0 0 0 0 0 127 0" result="hardAlpha"/>
<feOffset dy="7"/>
<feGaussianBlur stdDeviation="2"/>
<feComposite in2="hardAlpha" operator="out"/>
<feColorMatrix type="matrix" values="0 0 0 0 0 0 0 0 0 0 0 0 0 0 0 0 0 0 0.3 0"/>
<feBlend mode="normal" in2="BackgroundImageFix" result="effect1_dropShadow_424_1635"/>
<feBlend mode="normal" in="SourceGraphic" in2="effect1_dropShadow_424_1635" result="shape"/>
</filter>
<clipPath id="clip0_424_1635">
<rect width="91" height="91" fill="white"/>
</clipPath>
</defs>
</svg>
