<svg width="45" height="45" viewBox="0 0 45 45" fill="none" xmlns="http://www.w3.org/2000/svg">
<mask id="path-1-inside-1_2593_11691" fill="white">
<path d="M22.0741 22.365V35.818C22.1424 36.3301 21.9717 36.8764 21.579 37.2349C21.4211 37.3932 21.2335 37.5188 21.027 37.6044C20.8204 37.6901 20.599 37.7342 20.3755 37.7342C20.1519 37.7342 19.9305 37.6901 19.7239 37.6044C19.5174 37.5188 19.3298 37.3932 19.1719 37.2349L15.7403 33.8034C15.5542 33.6213 15.4127 33.3987 15.3269 33.1529C15.241 32.9071 15.213 32.6448 15.2452 32.3864V22.365H15.194L5.36041 9.7657C5.08317 9.4098 4.95807 8.95863 5.01246 8.51077C5.06684 8.06292 5.29628 7.6548 5.65064 7.37559C5.97501 7.13658 6.33353 7 6.70912 7H30.6103C30.9859 7 31.3444 7.13658 31.6687 7.37559C32.0231 7.6548 32.2525 8.06292 32.3069 8.51077C32.3613 8.95863 32.2362 9.4098 31.959 9.7657L22.1254 22.365H22.0741ZM31.8907 37.73L27.1958 32.6084L29.1762 30.628L31.8907 33.3425L38.0196 27.2135L40 29.6207L31.8907 37.73Z"/>
</mask>
<path d="M22.0741 22.365V5.36502H5.07414V22.365H22.0741ZM22.0741 35.818H5.07414V36.9463L5.22326 38.0647L22.0741 35.818ZM21.579 37.2349L10.1165 24.6807L9.82485 24.947L9.54591 25.2265L21.579 37.2349ZM21.027 37.6044L27.5406 53.3071L21.027 37.6044ZM19.1719 37.2349L31.205 25.2265L31.1988 25.2203L31.1927 25.2141L19.1719 37.2349ZM15.7403 33.8034L27.7611 21.7826L27.696 21.7174L27.6301 21.653L15.7403 33.8034ZM15.2452 32.3864L32.1148 34.4885L32.2452 33.4415V32.3864H15.2452ZM15.2452 22.365H32.2452V5.36502H15.2452V22.365ZM15.194 22.365L1.79265 32.8246L6.89735 39.365H15.194V22.365ZM5.36041 9.7657L-8.05082 20.2127L-8.04589 20.219L-8.04096 20.2253L5.36041 9.7657ZM5.65064 7.37559L-4.43375 -6.31036L-4.65486 -6.14744L-4.87059 -5.97745L5.65064 7.37559ZM31.6687 7.37559L42.19 -5.97745L41.9742 -6.14744L41.7531 -6.31036L31.6687 7.37559ZM31.959 9.7657L45.3603 20.2253L45.3653 20.219L45.3702 20.2127L31.959 9.7657ZM22.1254 22.365V39.365H30.422L35.5267 32.8246L22.1254 22.365ZM31.8907 37.73L19.3591 49.2174L31.3567 62.3057L43.9115 49.7509L31.8907 37.73ZM27.1958 32.6084L15.175 20.5876L3.66547 32.0971L14.6642 44.0957L27.1958 32.6084ZM29.1762 30.628L41.197 18.6072L29.1762 6.58636L17.1554 18.6072L29.1762 30.628ZM31.8907 33.3425L19.8699 45.3633L31.8907 57.3841L43.9115 45.3633L31.8907 33.3425ZM38.0196 27.2135L51.1478 16.413L39.2457 1.94583L25.9988 15.1927L38.0196 27.2135ZM40 29.6207L52.0208 41.6415L62.929 30.7333L53.1282 18.8202L40 29.6207ZM5.07414 22.365V35.818H39.0741V22.365H5.07414ZM5.22326 38.0647C4.63232 33.6327 5.9879 28.4503 10.1165 24.6807L33.0416 49.7892C37.9555 45.3026 39.6525 39.0276 38.925 33.5712L5.22326 38.0647ZM9.54591 25.2265C10.967 23.8024 12.655 22.6727 14.5133 21.9018L27.5406 53.3071C29.812 52.3649 31.8752 50.984 33.6122 49.2434L9.54591 25.2265ZM14.5133 21.9018C16.3716 21.131 18.3636 20.7342 20.3755 20.7342V54.7342C22.8345 54.7342 25.2693 54.2492 27.5406 53.3071L14.5133 21.9018ZM20.3755 20.7342C22.3873 20.7342 24.3793 21.131 26.2376 21.9018L13.2103 53.3071C15.4816 54.2492 17.9164 54.7342 20.3755 54.7342V20.7342ZM26.2376 21.9018C28.0959 22.6727 29.7839 23.8024 31.205 25.2265L7.13872 49.2434C8.87572 50.984 10.9389 52.3649 13.2103 53.3071L26.2376 21.9018ZM31.1927 25.2141L27.7611 21.7826L3.71953 45.8243L7.15105 49.2558L31.1927 25.2141ZM27.6301 21.653C29.3158 23.3025 30.5976 25.3192 31.3755 27.5456L-0.721746 38.7602C0.227912 41.4782 1.79269 43.9402 3.85059 45.9539L27.6301 21.653ZM31.3755 27.5456C32.1534 29.772 32.4064 32.1481 32.1148 34.4885L-1.6243 30.2844C-1.98032 33.1415 -1.67142 36.0422 -0.721746 38.7602L31.3755 27.5456ZM32.2452 32.3864V22.365H-1.75476V32.3864H32.2452ZM15.2452 5.36502H15.194V39.365H15.2452V5.36502ZM28.5954 11.9054L18.7618 -0.6939L-8.04096 20.2253L1.79265 32.8246L28.5954 11.9054ZM18.7716 -0.681254C21.2551 2.50682 22.3756 6.54828 21.8885 10.56L-11.8636 6.46154C-12.4595 11.369 -11.0887 16.3128 -8.05082 20.2127L18.7716 -0.681254ZM21.8885 10.56C21.4014 14.5717 19.3461 18.2276 16.1719 20.7286L-4.87059 -5.97745C-8.75355 -2.91796 -11.2677 1.5541 -11.8636 6.46154L21.8885 10.56ZM15.735 21.0615C13.7261 22.5418 10.6308 24 6.70912 24V-10C2.03622 -10 -1.77606 -8.26865 -4.43375 -6.31036L15.735 21.0615ZM6.70912 24H30.6103V-10H6.70912V24ZM30.6103 24C26.6886 24 23.5933 22.5418 21.5844 21.0615L41.7531 -6.31036C39.0954 -8.26866 35.2831 -10 30.6103 -10V24ZM21.1475 20.7286C17.9733 18.2275 15.918 14.5717 15.4309 10.56L49.183 6.46154C48.5871 1.55413 46.073 -2.91794 42.19 -5.97745L21.1475 20.7286ZM15.4309 10.56C14.9438 6.54831 16.0643 2.50685 18.5477 -0.681254L45.3702 20.2127C48.4081 16.3128 49.7789 11.3689 49.183 6.46154L15.4309 10.56ZM18.5576 -0.693902L8.72399 11.9054L35.5267 32.8246L45.3603 20.2253L18.5576 -0.693902ZM22.1254 5.36502H22.0741V39.365H22.1254V5.36502ZM44.4223 26.2427L39.7274 21.1211L14.6642 44.0957L19.3591 49.2174L44.4223 26.2427ZM39.2166 44.6292L41.197 42.6488L17.1554 18.6072L15.175 20.5876L39.2166 44.6292ZM17.1554 42.6488L19.8699 45.3633L43.9115 21.3217L41.197 18.6072L17.1554 42.6488ZM43.9115 45.3633L50.0404 39.2344L25.9988 15.1927L19.8699 21.3217L43.9115 45.3633ZM24.8914 38.014L26.8718 40.4212L53.1282 18.8202L51.1478 16.413L24.8914 38.014ZM27.9792 17.5999L19.8699 25.7092L43.9115 49.7509L52.0208 41.6415L27.9792 17.5999Z" fill="#FF5100" mask="url(#path-1-inside-1_2593_11691)"/>
</svg>
