<svg width="65" height="58" viewBox="0 0 65 58" fill="none" xmlns="http://www.w3.org/2000/svg">
<path d="M2.11613 2.24113C3.46917 0.887127 5.30458 0.125956 7.21875 0.125H21.6562C23.925 0.125 26.07 1.1975 27.4312 3.0125L31.1438 7.9625C31.2398 8.09058 31.3644 8.19453 31.5076 8.26613C31.6508 8.33773 31.8087 8.375 31.9688 8.375H53.625C54.719 8.375 55.7682 8.8096 56.5418 9.58318C57.3154 10.3568 57.75 11.406 57.75 12.5V14.5625H11.3438C10.5232 14.5625 9.73633 14.8884 9.15614 15.4686C8.57595 16.0488 8.25 16.8357 8.25 17.6562C8.25 18.4768 8.57595 19.2637 9.15614 19.8439C9.73633 20.4241 10.5232 20.75 11.3438 20.75H60.753C61.3357 20.7495 61.912 20.8725 62.4437 21.1108C62.9755 21.3491 63.4507 21.6975 63.8381 22.1328C64.2255 22.5681 64.5163 23.0806 64.6912 23.6364C64.8662 24.1923 64.9214 24.7789 64.8532 25.3576L61.875 50.6562C61.875 52.5708 61.1145 54.4069 59.7607 55.7607C58.4069 57.1145 56.5708 57.875 54.6562 57.875H7.21875C5.30422 57.875 3.4681 57.1145 2.11432 55.7607C0.760545 54.4069 0 52.5708 0 50.6562L0 7.34375C0 5.42975 0.759 3.59 2.11613 2.24113Z" fill="url(#paint0_linear_306_1036)"/>
<defs>
<linearGradient id="paint0_linear_306_1036" x1="32.4408" y1="0.125" x2="32.4408" y2="57.875" gradientUnits="userSpaceOnUse">
<stop stop-color="#FF914E"/>
<stop offset="1" stop-color="#B5D3D1"/>
</linearGradient>
</defs>
</svg>
