<svg width="36" height="36" viewBox="0 0 36 36" fill="none" xmlns="http://www.w3.org/2000/svg">
<g clip-path="url(#clip0_2264_3606)">
<path d="M27.9557 21.3542C27.8984 21.315 27.4306 20.7171 26.5521 19.5604C25.6736 18.4037 25.2344 16.2374 25.2344 13.0615C25.2153 12.0028 24.9957 11.0226 24.5755 10.1208C24.1745 9.19939 23.635 8.4005 22.957 7.72415C22.2791 7.04779 21.4913 6.51356 20.5937 6.12147C19.6962 5.72938 18.7318 5.53333 17.7005 5.53333C17.6623 5.53333 17.6241 5.53333 17.5859 5.53333C17.5477 5.53333 17.5191 5.54314 17.5 5.56274C17.4618 5.54314 17.4284 5.53333 17.3997 5.53333C17.3711 5.53333 17.3377 5.53333 17.2995 5.53333C16.2682 5.53333 15.3038 5.72938 14.4062 6.12147C13.5087 6.51356 12.7209 7.04779 12.043 7.72415C11.365 8.4005 10.8255 9.19939 10.4245 10.1208C10.0043 11.0226 9.78472 11.993 9.76562 13.0321V13.0615C9.76562 16.2374 9.33116 18.4037 8.46224 19.5604C7.59332 20.7171 7.13021 21.315 7.07292 21.3542C6.90104 21.4718 6.76259 21.6238 6.65755 21.81C6.55252 21.9963 6.5 22.1972 6.5 22.4129C6.5 22.7657 6.61936 23.0647 6.85807 23.3098C7.09679 23.5548 7.38802 23.6774 7.73177 23.6774H12.6589C12.7925 24.7948 13.2127 25.9613 13.9193 27.1768C14.6259 28.3923 15.8194 29 17.5 29C19.1806 29 20.3741 28.3923 21.0807 27.1768C21.7873 25.9613 22.2075 24.7948 22.3411 23.6774H27.2682C27.5547 23.6774 27.8029 23.594 28.013 23.4274C28.2231 23.2608 28.3663 23.05 28.4427 22.7952V22.7657C28.4618 22.7265 28.4761 22.6726 28.4857 22.604C28.4952 22.5354 28.5 22.4717 28.5 22.4129C28.5 22.1972 28.4475 21.9963 28.3424 21.81C28.2374 21.6238 28.1085 21.4718 27.9557 21.3542ZM17.5 26.5004C16.6788 26.5004 16.1011 26.1671 15.7669 25.5006C15.4327 24.834 15.2274 24.2263 15.151 23.6774H19.849C19.7726 24.2263 19.5673 24.834 19.2331 25.5006C18.8989 26.1671 18.3212 26.5004 17.5 26.5004ZM10.3672 21.1484C10.9401 20.0701 11.3937 18.8987 11.7279 17.6343C12.0621 16.3698 12.2292 15.0514 12.2292 13.679C12.2292 13.581 12.2244 13.4732 12.2148 13.3556C12.2053 13.2379 12.2005 13.1203 12.2005 13.0027V13.0615C12.2578 11.65 12.7782 10.4639 13.7617 9.50326C14.7452 8.54263 15.9245 8.06232 17.2995 8.06232C17.3377 8.06232 17.3759 8.06232 17.4141 8.06232C17.4523 8.06232 17.4809 8.06232 17.5 8.06232C17.5382 8.06232 17.5716 8.06232 17.6003 8.06232C17.6289 8.06232 17.6623 8.06232 17.7005 8.06232C19.0755 8.06232 20.2548 8.54263 21.2383 9.50326C22.2218 10.4639 22.7422 11.6402 22.7995 13.0321V13.0615C22.7995 13.1399 22.7947 13.2379 22.7852 13.3556C22.7756 13.4732 22.7708 13.581 22.7708 13.679C22.7708 15.0514 22.9379 16.3747 23.2721 17.649C23.6063 18.9233 24.079 20.1191 24.6901 21.2366L24.6328 21.1484H10.3672Z" fill="#606060"/>
</g>
<defs>
<clipPath id="clip0_2264_3606">
<rect width="25" height="25" fill="white" transform="matrix(1 0 0 -1 5 30.5)"/>
</clipPath>
</defs>
</svg>
