<svg width="37" height="36" viewBox="0 0 37 36" fill="none" xmlns="http://www.w3.org/2000/svg">
<path d="M17.8713 7.25781H9.02695C8.35676 7.25781 7.71402 7.52404 7.24013 7.99794C6.76623 8.47183 6.5 9.11457 6.5 9.78476V27.4734C6.5 28.1436 6.76623 28.7863 7.24013 29.2602C7.71402 29.7341 8.35676 30.0003 9.02695 30.0003H26.7156C27.3858 30.0003 28.0285 29.7341 28.5024 29.2602C28.9763 28.7863 29.2425 28.1436 29.2425 27.4734V18.6291" stroke="#606060" stroke-width="2" stroke-linecap="round" stroke-linejoin="round"/>
<path d="M25.9261 6.78502C26.4287 6.28238 27.1105 6 27.8213 6C28.5322 6 29.2139 6.28238 29.7165 6.78502C30.2192 7.28766 30.5015 7.96939 30.5015 8.68023C30.5015 9.39108 30.2192 10.0728 29.7165 10.5754L18.3288 21.9644C18.0288 22.2642 17.6582 22.4836 17.2511 22.6025L13.6211 23.6638C13.5124 23.6955 13.3972 23.6974 13.2875 23.6693C13.1777 23.6412 13.0776 23.5841 12.9975 23.504C12.9175 23.4239 12.8604 23.3238 12.8323 23.2141C12.8042 23.1044 12.8061 22.9891 12.8378 22.8804L13.8991 19.2505C14.0185 18.8437 14.2384 18.4735 14.5384 18.174L25.9261 6.78502Z" stroke="#606060" stroke-width="2" stroke-linecap="round" stroke-linejoin="round"/>
</svg>
