<svg width="45" height="46" viewBox="0 0 45 46" fill="none" xmlns="http://www.w3.org/2000/svg">
<path d="M11.6667 27.1667H11.4596L11.3131 27.3131L5.5 33.1262V7.66667C5.5 7.35725 5.62292 7.0605 5.84171 6.84171C6.0605 6.62292 6.35725 6.5 6.66667 6.5H31.6667C31.9761 6.5 32.2728 6.62292 32.4916 6.84171C32.7104 7.0605 32.8333 7.35725 32.8333 7.66667V26C32.8333 26.3094 32.7104 26.6062 32.4916 26.825C32.2728 27.0438 31.9761 27.1667 31.6667 27.1667H11.6667ZM13.8333 32.6667V31.5H36.6667H37.1667V31V16.5H38.3333C38.6427 16.5 38.9395 16.6229 39.1583 16.8417C39.3771 17.0605 39.5 17.3572 39.5 17.6667V39.7929L33.6869 33.9798L33.5404 33.8333H33.3333H15C14.6906 33.8333 14.3938 33.7104 14.175 33.4916C13.9563 33.2728 13.8333 32.9761 13.8333 32.6667ZM11.5073 9.91133L11.4987 9.9175L11.4904 9.92403C10.4845 10.7172 9.99837 11.8244 10.0167 13.273L10.0177 13.3509L10.0423 13.4248L10.059 13.4748L10.173 13.8167H10.5333H13.75H14.2336L14.2497 13.3333C14.2631 12.9317 14.377 12.6964 14.5427 12.5459C14.7576 12.3704 15.0282 12.2772 15.3058 12.2832L15.3058 12.2833H15.3167C15.7219 12.2833 16.018 12.4112 16.2083 12.5988C16.3925 12.7961 16.5 13.0896 16.5 13.5C16.5 13.9573 16.4013 14.3007 16.2062 14.5811L16.1975 14.5937L16.1896 14.6067C16.0045 14.9107 15.7168 15.1911 15.338 15.4242L15.3302 15.4289L15.3226 15.434C14.4652 16.0056 13.8199 16.5446 13.4471 17.0704C13.0238 17.6266 12.8333 18.4496 12.8333 19.3333V19.8333H13.3333H16.6667H17.1667V19.3333C17.1667 18.8465 17.2317 18.5213 17.3305 18.3236C17.4277 18.1292 17.6322 17.8947 17.987 17.6647C18.7786 17.24 19.4541 16.7135 19.9881 15.9768C20.5263 15.2346 20.8167 14.4502 20.8167 13.5C20.8167 12.1006 20.3123 10.938 19.2885 10.084C18.2898 9.23695 16.9464 8.83333 15.3167 8.83333C13.7903 8.83333 12.5131 9.18487 11.5073 9.91133ZM13.3333 20.5H12.8333V21V24.3333V24.8333H13.3333H16.6667H17.1667V24.3333V21V20.5H16.6667H13.3333ZM22.8333 24.3333V24.8333H23.3333H26.6667H27.1667V24.3333V21V20.5H26.6667H23.3333H22.8333V21V24.3333ZM23.3333 8.83333H22.8333V9.33333V19.3333V19.8333H23.3333H26.6667H27.1667V19.3333V9.33333V8.83333H26.6667H23.3333Z" fill="#FF5100" stroke="#FF5100"/>
</svg>
