<svg width="45" height="45" viewBox="0 0 45 45" fill="none" xmlns="http://www.w3.org/2000/svg">
<path d="M13.1763 16.3233C13.1763 16.0502 13.2848 15.7884 13.4778 15.5954C13.6709 15.4023 13.9327 15.2939 14.2057 15.2939H24.4996C24.7726 15.2939 25.0344 15.4023 25.2275 15.5954C25.4205 15.7884 25.529 16.0502 25.529 16.3233C25.529 16.5963 25.4205 16.8581 25.2275 17.0511C25.0344 17.2442 24.7726 17.3526 24.4996 17.3526H14.2057C13.9327 17.3526 13.6709 17.2442 13.4778 17.0511C13.2848 16.8581 13.1763 16.5963 13.1763 16.3233ZM14.2057 21.4702C13.9327 21.4702 13.6709 21.5786 13.4778 21.7717C13.2848 21.9647 13.1763 22.2266 13.1763 22.4996C13.1763 22.7726 13.2848 23.0344 13.4778 23.2275C13.6709 23.4205 13.9327 23.529 14.2057 23.529H24.4996C24.7726 23.529 25.0344 23.4205 25.2275 23.2275C25.4205 23.0344 25.529 22.7726 25.529 22.4996C25.529 22.2266 25.4205 21.9647 25.2275 21.7717C25.0344 21.5786 24.7726 21.4702 24.4996 21.4702H14.2057ZM13.1763 28.6759C13.1763 28.4029 13.2848 28.1411 13.4778 27.948C13.6709 27.755 13.9327 27.6465 14.2057 27.6465H18.3233C18.5963 27.6465 18.8581 27.755 19.0511 27.948C19.2442 28.1411 19.3526 28.4029 19.3526 28.6759C19.3526 28.9489 19.2442 29.2107 19.0511 29.4038C18.8581 29.5968 18.5963 29.7053 18.3233 29.7053H14.2057C13.9327 29.7053 13.6709 29.5968 13.4778 29.4038C13.2848 29.2107 13.1763 28.9489 13.1763 28.6759ZM11.1175 6.02939C11.1175 5.75638 11.226 5.49455 11.419 5.3015C11.6121 5.10845 11.8739 5 12.1469 5C12.4199 5 12.6818 5.10845 12.8748 5.3015C13.0679 5.49455 13.1763 5.75638 13.1763 6.02939V7.05877H18.3233V6.02939C18.3233 5.75638 18.4317 5.49455 18.6248 5.3015C18.8178 5.10845 19.0796 5 19.3526 5C19.6256 5 19.8875 5.10845 20.0805 5.3015C20.2736 5.49455 20.382 5.75638 20.382 6.02939V7.05877H25.529V6.02939C25.529 5.75638 25.6374 5.49455 25.8305 5.3015C26.0235 5.10845 26.2853 5 26.5583 5C26.8314 5 27.0932 5.10845 27.2862 5.3015C27.4793 5.49455 27.5877 5.75638 27.5877 6.02939V7.05877H28.6171C29.4361 7.05877 30.2216 7.38413 30.8008 7.96327C31.3799 8.54242 31.7053 9.3279 31.7053 10.1469V19.8891C31.0341 20.1773 30.4041 20.5931 29.8565 21.1428L29.6465 21.3528V10.1469C29.6465 9.87392 29.5381 9.61209 29.345 9.41905C29.152 9.226 28.8901 9.11755 28.6171 9.11755H10.0882C9.81515 9.11755 9.55332 9.226 9.36027 9.41905C9.16723 9.61209 9.05877 9.87392 9.05877 10.1469V34.8522C9.05877 35.1252 9.16723 35.3871 9.36027 35.5801C9.55332 35.7731 9.81515 35.8816 10.0882 35.8816H17.7468L17.4112 37.226C17.3508 37.4675 17.3138 37.7057 17.3 37.9404H10.0882C9.26913 37.9404 8.48364 37.615 7.9045 37.0359C7.32536 36.4567 7 35.6712 7 34.8522V10.1469C7 9.3279 7.32536 8.54242 7.9045 7.96327C8.48364 7.38413 9.26913 7.05877 10.0882 7.05877H11.1175V6.02939ZM31.3141 22.5984L21.3702 32.5423C20.7909 33.1217 20.3797 33.8475 20.1803 34.6422L19.4082 37.7263C19.3321 38.033 19.3366 38.3542 19.4213 38.6587C19.506 38.9632 19.668 39.2406 19.8915 39.4639C20.1151 39.6873 20.3927 39.849 20.6972 39.9334C21.0018 40.0179 21.323 40.022 21.6296 39.9456L24.7137 39.1756C25.5084 38.9762 26.2342 38.565 26.8136 37.9857L36.7575 28.0418C37.4701 27.3178 37.8677 26.3414 37.8636 25.3255C37.8594 24.3097 37.454 23.3366 36.7355 22.6184C36.017 21.9002 35.0438 21.495 34.0279 21.4913C33.012 21.4876 32.0358 21.8855 31.3121 22.5984" fill="#FF5100"/>
</svg>
