<svg width="36" height="36" viewBox="0 0 36 36" fill="none" xmlns="http://www.w3.org/2000/svg">
<path d="M18 21.6C18.34 21.6 18.6252 21.4848 18.8556 21.2544C19.086 21.024 19.2008 20.7392 19.2 20.4C19.1992 20.0608 19.084 19.776 18.8544 19.5456C18.6248 19.3152 18.34 19.2 18 19.2C17.66 19.2 17.3752 19.3152 17.1456 19.5456C16.916 19.776 16.8008 20.0608 16.8 20.4C16.7992 20.7392 16.9144 21.0244 17.1456 21.2556C17.3768 21.4868 17.6616 21.6016 18 21.6ZM16.8 16.8H19.2V9.6H16.8V16.8ZM6 30V8.4C6 7.74 6.2352 7.1752 6.7056 6.7056C7.176 6.236 7.7408 6.0008 8.4 6H27.6C28.26 6 28.8252 6.2352 29.2956 6.7056C29.766 7.176 30.0008 7.7408 30 8.4V22.8C30 23.46 29.7652 24.0252 29.2956 24.4956C28.826 24.966 28.2608 25.2008 27.6 25.2H10.8L6 30ZM9.78 22.8H27.6V8.4H8.4V24.15L9.78 22.8Z" fill="#606060"/>
</svg>
