<svg width="37" height="36" viewBox="0 0 37 36" fill="none" xmlns="http://www.w3.org/2000/svg">
<path d="M15.1995 30V23.5384C13.7906 23.4329 12.4099 23.2847 11.0574 23.0936C9.70494 22.9035 8.35247 22.6353 7 22.2889L7.32471 20.8772C9.11576 21.3289 10.9238 21.6499 12.7487 21.84C14.5736 22.0301 16.4202 22.1256 18.2885 22.1266C20.1351 22.1266 21.9722 22.0311 23.8 21.84C25.6278 21.6489 27.4489 21.328 29.2635 20.8772L29.5882 22.2889C28.2311 22.6353 26.8706 22.9049 25.5068 23.0979C24.1421 23.2918 22.7694 23.4424 21.3887 23.5496V30H15.1995ZM18.2984 19.8466C17.6226 19.8466 17.0546 19.6184 16.5944 19.1619C16.1351 18.7054 15.9054 18.1398 15.9054 17.4649C15.9054 16.8099 16.1336 16.2466 16.5901 15.7751C17.0466 15.3035 17.6122 15.0678 18.2871 15.0678C18.9421 15.0678 19.5049 15.3016 19.9755 15.7694C20.4471 16.2362 20.6828 16.7976 20.6828 17.4536C20.6828 18.1294 20.4494 18.6969 19.9826 19.1562C19.5158 19.6155 18.9544 19.8456 18.2984 19.8466ZM8.41176 15.8824C8.01647 15.8824 7.68235 15.7459 7.40941 15.4729C7.13647 15.2 7 14.8635 7 14.4635C7 14.0795 7.13647 13.7492 7.40941 13.4725C7.68235 13.1967 8.01929 13.0588 8.42024 13.0588C8.80518 13.0588 9.13553 13.1962 9.41129 13.4711C9.68612 13.7449 9.82353 14.0781 9.82353 14.4706C9.82353 14.8659 9.68612 15.2 9.41129 15.4729C9.13741 15.7459 8.80424 15.8824 8.41176 15.8824ZM28.1765 15.8824C27.7812 15.8824 27.4471 15.7459 27.1741 15.4729C26.9012 15.2 26.7647 14.8635 26.7647 14.4635C26.7647 14.0795 26.9012 13.7492 27.1741 13.4725C27.4471 13.1967 27.7835 13.0588 28.1835 13.0588C28.5685 13.0588 28.8988 13.1962 29.1746 13.4711C29.4504 13.7449 29.5882 14.0781 29.5882 14.4706C29.5882 14.8659 29.4508 15.2 29.176 15.4729C28.9021 15.7459 28.5689 15.8824 28.1765 15.8824ZM11.8593 10.7238C11.4649 10.7238 11.1308 10.5873 10.8569 10.3144C10.584 10.0414 10.4475 9.70494 10.4475 9.30494C10.4475 8.92094 10.584 8.59106 10.8569 8.31529C11.1308 8.03859 11.4678 7.90024 11.8678 7.90024C12.2518 7.90024 12.5816 8.03765 12.8574 8.31247C13.1332 8.58729 13.2711 8.92047 13.2711 9.312C13.2711 9.70729 13.1341 10.0414 12.8602 10.3144C12.5854 10.5873 12.2518 10.7238 11.8593 10.7238ZM24.7289 10.7238C24.3336 10.7238 23.9995 10.5873 23.7266 10.3144C23.4536 10.0414 23.3172 9.70494 23.3172 9.30494C23.3172 8.92094 23.4536 8.59106 23.7266 8.31529C23.9995 8.03859 24.336 7.90024 24.736 7.90024C25.12 7.90024 25.4504 8.03765 25.7271 8.31247C26.0028 8.58729 26.1407 8.92047 26.1407 9.312C26.1407 9.70729 26.0033 10.0414 25.7285 10.3144C25.4536 10.5873 25.1205 10.7238 24.7289 10.7238ZM18.2941 8.82353C17.8988 8.82353 17.5647 8.68706 17.2918 8.41412C17.0188 8.14118 16.8824 7.80471 16.8824 7.40471C16.8824 7.01976 17.0188 6.68941 17.2918 6.41365C17.5647 6.13788 17.9016 6 18.3026 6C18.6866 6 19.0169 6.13741 19.2936 6.41224C19.5685 6.68612 19.7059 7.01929 19.7059 7.41176C19.7059 7.80706 19.5685 8.14118 19.2936 8.41412C19.0198 8.68706 18.6866 8.82353 18.2941 8.82353Z" fill="#606060"/>
</svg>
