<svg width="63" height="63" viewBox="0 0 63 63" fill="none" xmlns="http://www.w3.org/2000/svg">
<g clip-path="url(#clip0_425_1641)">
<g filter="url(#filter0_d_425_1641)">
<path fill-rule="evenodd" clip-rule="evenodd" d="M34.0042 13.7812C34.0042 13.2591 33.7968 12.7583 33.4276 12.3891C33.0584 12.0199 32.5576 11.8125 32.0355 11.8125H5.90625C4.33982 11.8125 2.83754 12.4348 1.7299 13.5424C0.622264 14.65 0 16.1523 0 17.7188L0 57.0938C0 58.6602 0.622264 60.1625 1.7299 61.2701C2.83754 62.3777 4.33982 63 5.90625 63H45.2812C46.8477 63 48.35 62.3777 49.4576 61.2701C50.5652 60.1625 51.1875 58.6602 51.1875 57.0938V30.9645C51.1875 30.4424 50.9801 29.9416 50.6109 29.5724C50.2417 29.2032 49.7409 28.9957 49.2188 28.9957C48.6966 28.9957 48.1958 29.2032 47.8266 29.5724C47.4574 29.9416 47.25 30.4424 47.25 30.9645V57.0938C47.25 57.6159 47.0426 58.1167 46.6734 58.4859C46.3042 58.8551 45.8034 59.0625 45.2812 59.0625H5.90625C5.38411 59.0625 4.88335 58.8551 4.51413 58.4859C4.14492 58.1167 3.9375 57.6159 3.9375 57.0938V17.7188C3.9375 17.1966 4.14492 16.6958 4.51413 16.3266C4.88335 15.9574 5.38411 15.75 5.90625 15.75H32.0355C32.5576 15.75 33.0584 15.5426 33.4276 15.1734C33.7968 14.8042 34.0042 14.3034 34.0042 13.7812Z" fill="#175572"/>
</g>
<g filter="url(#filter1_d_425_1641)">
<path fill-rule="evenodd" clip-rule="evenodd" d="M63 1.96875C63 1.44661 62.7926 0.945846 62.4234 0.576634C62.0541 0.207421 61.5534 0 61.0312 0L41.3437 0C40.8216 0 40.3208 0.207421 39.9516 0.576634C39.5824 0.945846 39.375 1.44661 39.375 1.96875C39.375 2.4909 39.5824 2.99165 39.9516 3.36087C40.3208 3.73008 40.8216 3.9375 41.3437 3.9375H56.2787L24.1999 36.0124C24.0168 36.1954 23.8716 36.4127 23.7725 36.6519C23.6735 36.8911 23.6225 37.1474 23.6225 37.4063C23.6225 37.6651 23.6735 37.9215 23.7725 38.1606C23.8716 38.3998 24.0168 38.6171 24.1999 38.8001C24.3829 38.9832 24.6002 39.1284 24.8394 39.2274C25.0785 39.3265 25.3349 39.3775 25.5937 39.3775C25.8526 39.3775 26.1089 39.3265 26.3481 39.2274C26.5873 39.1284 26.8046 38.9832 26.9876 38.8001L59.0625 6.72131V21.6563C59.0625 22.1784 59.2699 22.6792 59.6391 23.0484C60.0083 23.4176 60.5091 23.625 61.0312 23.625C61.5534 23.625 62.0541 23.4176 62.4234 23.0484C62.7926 22.6792 63 22.1784 63 21.6563V1.96875Z" fill="#175572"/>
</g>
</g>
<defs>
<filter id="filter0_d_425_1641" x="-4" y="11.8125" width="59.1875" height="62.1875" filterUnits="userSpaceOnUse" color-interpolation-filters="sRGB">
<feFlood flood-opacity="0" result="BackgroundImageFix"/>
<feColorMatrix in="SourceAlpha" type="matrix" values="0 0 0 0 0 0 0 0 0 0 0 0 0 0 0 0 0 0 127 0" result="hardAlpha"/>
<feOffset dy="7"/>
<feGaussianBlur stdDeviation="2"/>
<feComposite in2="hardAlpha" operator="out"/>
<feColorMatrix type="matrix" values="0 0 0 0 0 0 0 0 0 0 0 0 0 0 0 0 0 0 0.3 0"/>
<feBlend mode="normal" in2="BackgroundImageFix" result="effect1_dropShadow_425_1641"/>
<feBlend mode="normal" in="SourceGraphic" in2="effect1_dropShadow_425_1641" result="shape"/>
</filter>
<filter id="filter1_d_425_1641" x="19.6225" y="0" width="47.3775" height="50.3774" filterUnits="userSpaceOnUse" color-interpolation-filters="sRGB">
<feFlood flood-opacity="0" result="BackgroundImageFix"/>
<feColorMatrix in="SourceAlpha" type="matrix" values="0 0 0 0 0 0 0 0 0 0 0 0 0 0 0 0 0 0 127 0" result="hardAlpha"/>
<feOffset dy="7"/>
<feGaussianBlur stdDeviation="2"/>
<feComposite in2="hardAlpha" operator="out"/>
<feColorMatrix type="matrix" values="0 0 0 0 0 0 0 0 0 0 0 0 0 0 0 0 0 0 0.3 0"/>
<feBlend mode="normal" in2="BackgroundImageFix" result="effect1_dropShadow_425_1641"/>
<feBlend mode="normal" in="SourceGraphic" in2="effect1_dropShadow_425_1641" result="shape"/>
</filter>
<clipPath id="clip0_425_1641">
<rect width="63" height="63" fill="white"/>
</clipPath>
</defs>
</svg>
