<svg width="82" height="82" viewBox="0 0 82 82" fill="none" xmlns="http://www.w3.org/2000/svg">
<g filter="url(#filter0_d_424_1636)">
<path d="M45.5 0.0999756C40.6731 0.0999756 36.0438 2.01747 32.6307 5.43063C29.2175 8.84379 27.3 13.473 27.3 18.3C27.3 23.1269 29.2175 27.7562 32.6307 31.1693C36.0438 34.5825 40.6731 36.5 45.5 36.5C50.3269 36.5 54.9562 34.5825 58.3694 31.1693C61.7825 27.7562 63.7 23.1269 63.7 18.3C63.7 13.473 61.7825 8.84379 58.3694 5.43063C54.9562 2.01747 50.3269 0.0999756 45.5 0.0999756ZM31.85 18.3C31.85 14.6798 33.2881 11.2078 35.848 8.64797C38.4079 6.0881 41.8798 4.64998 45.5 4.64998C49.1202 4.64998 52.5921 6.0881 55.152 8.64797C57.7119 11.2078 59.15 14.6798 59.15 18.3C59.15 21.9202 57.7119 25.3921 55.152 27.952C52.5921 30.5119 49.1202 31.95 45.5 31.95C41.8798 31.95 38.4079 30.5119 35.848 27.952C33.2881 25.3921 31.85 21.9202 31.85 18.3ZM67.6358 67.4263C62.7627 70.534 56.4701 72.2675 49.6087 72.7544C49.2665 71.8508 48.7361 71.0303 48.0526 70.3474L46.0506 68.3454C53.7173 68.2726 60.4286 66.621 65.1879 63.5861C69.9654 60.5376 72.8 56.1105 72.8 50.15C72.8 48.9432 72.3206 47.7859 71.4673 46.9326C70.6141 46.0793 69.4567 45.6 68.25 45.6H39.7852C39.2168 43.9939 38.4494 42.4653 37.5011 41.05H68.25C70.6635 41.05 72.9781 42.0087 74.6847 43.7153C76.3913 45.4219 77.35 47.7365 77.35 50.15C77.35 57.844 73.5599 63.6453 67.6358 67.4263ZM20.475 68.35C24.0513 68.35 27.3546 67.167 30.0118 65.1786L41.6143 76.7811C41.8255 76.9926 42.0763 77.1605 42.3524 77.2751C42.6285 77.3897 42.9245 77.4488 43.2234 77.449C43.5223 77.4492 43.8184 77.3905 44.0946 77.2763C44.3709 77.1621 44.6219 76.9946 44.8334 76.7834C45.045 76.5722 45.2128 76.3214 45.3274 76.0453C45.442 75.7692 45.5011 75.4732 45.5013 75.1743C45.5015 74.8754 45.4428 74.5793 45.3286 74.3031C45.2144 74.0268 45.0469 73.7758 44.8357 73.5643L33.2332 61.9618C35.3809 59.0897 36.4962 55.5768 36.3987 51.9919C36.3012 48.407 34.9965 44.9599 32.6958 42.2089C30.3952 39.4578 27.2333 37.5638 23.7222 36.8336C20.2111 36.1034 16.5563 36.5796 13.3496 38.1853C10.1429 39.7909 7.57197 42.432 6.05319 45.6807C4.53441 48.9295 4.15666 52.5958 4.98111 56.086C5.80555 59.5762 7.78392 62.6859 10.5959 64.9117C13.4078 67.1375 16.8888 68.3489 20.475 68.35ZM20.475 63.8C17.4582 63.8 14.5649 62.6015 12.4317 60.4683C10.2984 58.3351 9.10001 55.4418 9.10001 52.425C9.10001 49.4081 10.2984 46.5149 12.4317 44.3816C14.5649 42.2484 17.4582 41.05 20.475 41.05C23.4918 41.05 26.3851 42.2484 28.5183 44.3816C30.6516 46.5149 31.85 49.4081 31.85 52.425C31.85 55.4418 30.6516 58.3351 28.5183 60.4683C26.3851 62.6015 23.4918 63.8 20.475 63.8Z" fill="#175572"/>
</g>
<defs>
<filter id="filter0_d_424_1636" x="0.554565" y="0.0999756" width="80.7954" height="88.349" filterUnits="userSpaceOnUse" color-interpolation-filters="sRGB">
<feFlood flood-opacity="0" result="BackgroundImageFix"/>
<feColorMatrix in="SourceAlpha" type="matrix" values="0 0 0 0 0 0 0 0 0 0 0 0 0 0 0 0 0 0 127 0" result="hardAlpha"/>
<feOffset dy="7"/>
<feGaussianBlur stdDeviation="2"/>
<feComposite in2="hardAlpha" operator="out"/>
<feColorMatrix type="matrix" values="0 0 0 0 0 0 0 0 0 0 0 0 0 0 0 0 0 0 0.3 0"/>
<feBlend mode="normal" in2="BackgroundImageFix" result="effect1_dropShadow_424_1636"/>
<feBlend mode="normal" in="SourceGraphic" in2="effect1_dropShadow_424_1636" result="shape"/>
</filter>
</defs>
</svg>
