<svg width="45" height="46" viewBox="0 0 45 46" fill="none" xmlns="http://www.w3.org/2000/svg">
<path d="M6 41V37.6298H39.7025V41H6ZM26.2282 21.2655L21.8469 16.8842L15.3002 23.4292C15.1058 23.6236 15.0087 23.8612 15.0087 24.142C15.0087 24.4229 15.1058 24.6605 15.3002 24.8548L18.2458 27.8105C18.4413 28.0049 18.6794 28.1021 18.9603 28.1021C19.2411 28.1021 19.4782 28.0049 19.6714 27.8105L26.2282 21.2655ZM23.0484 15.6895L27.4213 20.0607L35.0684 12.422C35.2627 12.2277 35.3599 11.9794 35.3599 11.6772C35.3599 11.375 35.2627 11.1267 35.0684 10.9324L32.1767 8.04068C31.9835 7.84633 31.7352 7.74916 31.4319 7.74916C31.1285 7.74916 30.8803 7.84633 30.687 8.04068L23.0484 15.6895ZM21.2605 15.0828L28.0262 21.8486L20.8746 29.0104C20.3297 29.5552 19.6927 29.8276 18.9636 29.8276C18.2346 29.8276 17.5976 29.5552 17.0527 29.0104L16.7292 28.6868L14.7812 30.5961H10.1168L14.3885 26.3344L14.129 26.0749C13.5853 25.53 13.3101 24.8897 13.3033 24.1538C13.2966 23.418 13.5656 22.7782 14.1105 22.2345L21.2605 15.0828ZM21.2605 15.0828L29.5277 6.8156C30.0714 6.27187 30.7078 6 31.4369 6C32.166 6 32.803 6.27187 33.3479 6.8156L36.3036 9.76119C36.8473 10.306 37.1192 10.943 37.1192 11.6721C37.1192 12.4023 36.8473 13.0393 36.3036 13.5831L28.0262 21.8486L21.2605 15.0828Z" fill="#FF5100"/>
</svg>
