<svg width="20" height="20" viewBox="0 0 20 20" fill="none" xmlns="http://www.w3.org/2000/svg">
<path d="M17.2727 12V15H20V17H17.2727V20H15.4545V17H12.7273V15H15.4545V12H17.2727ZM17.28 0C17.7782 0 18.1818 0.445 18.1818 0.993V10.342C17.5978 10.1151 16.983 9.99944 16.3636 10V2H1.81818L1.81909 16L10.2664 6.707C10.4227 6.53448 10.6309 6.43073 10.8519 6.41526C11.0729 6.39979 11.2914 6.47367 11.4664 6.623L11.5518 6.708L14.7745 10.258C14.0697 10.4943 13.4156 10.8851 12.8518 11.407C12.2879 11.9288 11.826 12.5709 11.4939 13.2944C11.1617 14.0179 10.9662 14.808 10.9191 15.6169C10.8721 16.4258 10.9744 17.2368 11.22 18.001L0.901818 18C0.662558 17.9997 0.433179 17.895 0.264081 17.7088C0.0949837 17.5226 -1.21323e-07 17.2702 0 17.007V0.993C0.00166368 0.730378 0.0971821 0.479017 0.265921 0.293218C0.43466 0.107418 0.663073 0.00209465 0.901818 0H17.28ZM5.45455 4C5.93676 4 6.39922 4.21071 6.74019 4.58579C7.08117 4.96086 7.27273 5.46957 7.27273 6C7.27273 6.53043 7.08117 7.03914 6.74019 7.41421C6.39922 7.78929 5.93676 8 5.45455 8C4.97233 8 4.50987 7.78929 4.1689 7.41421C3.82792 7.03914 3.63636 6.53043 3.63636 6C3.63636 5.46957 3.82792 4.96086 4.1689 4.58579C4.50987 4.21071 4.97233 4 5.45455 4Z" fill="#678498"/>
</svg>
