<svg width="37" height="36" viewBox="0 0 37 36" fill="none" xmlns="http://www.w3.org/2000/svg">
<path fill-rule="evenodd" clip-rule="evenodd" d="M23.7387 6.86062L23.8139 6.88071C25.066 7.21005 26.0575 7.47017 26.8373 7.74703C27.6352 8.02948 28.2864 8.35212 28.8225 8.84445C29.6028 9.56176 30.1487 10.4899 30.3911 11.5115C30.5585 12.2126 30.5186 12.9271 30.3684 13.7454C30.2238 14.547 29.9586 15.5194 29.6228 16.7463L29.0126 18.978C28.678 20.2049 28.4116 21.1773 28.1304 21.9431C27.8413 22.7246 27.5123 23.3632 27.0103 23.889C26.3028 24.6299 25.3933 25.1561 24.3899 25.405C24.0959 26.0661 23.6675 26.6613 23.1309 27.1544C22.5947 27.6468 21.9436 27.9694 21.1456 28.253C20.3659 28.5298 19.3744 28.79 18.1234 29.1193L18.0471 29.1394C16.7949 29.4676 15.8046 29.7277 14.9873 29.8717C14.1529 30.018 13.4243 30.0571 12.7083 29.8941C11.6668 29.6555 10.7208 29.1194 9.98999 28.3534C9.48913 27.8287 9.15901 27.1902 8.86988 26.4076C8.58871 25.6428 8.32348 24.6705 7.98767 23.4424L7.37753 21.2119C7.04286 19.9838 6.77649 19.0126 6.63078 18.211C6.48166 17.3927 6.44182 16.6782 6.60801 15.976C6.85127 14.9545 7.39795 14.0267 8.17891 13.31C8.71392 12.8188 9.36505 12.4951 10.163 12.2115C10.9428 11.9357 11.9343 11.6756 13.1853 11.3463L13.224 11.3351L14.0789 11.1118C14.5251 9.55001 14.9167 8.4459 15.6816 7.64544C16.4126 6.87994 17.3586 6.34419 18.4 6.10593C19.116 5.94294 19.8434 5.98201 20.6789 6.12826C21.4951 6.27116 22.4866 6.5324 23.7387 6.86062ZM13.5632 12.9807C12.319 13.3078 11.4277 13.5445 10.7424 13.7867C10.048 14.0323 9.64166 14.2601 9.3457 14.5325C8.81142 15.0229 8.43746 15.6578 8.27111 16.3567C8.18005 16.7452 8.18119 17.2051 8.31209 17.9163C8.443 18.6386 8.69002 19.5429 9.03721 20.8155L9.62687 22.9724C9.97406 24.2451 10.2222 25.1494 10.4761 25.8382C10.7265 26.5192 10.9587 26.9189 11.2365 27.2091C11.7365 27.7331 12.3838 28.0999 13.0965 28.263C13.4915 28.3523 13.9616 28.3501 14.6867 28.2228C15.4232 28.0944 16.3453 27.8522 17.643 27.5117C18.9407 27.1701 19.8627 26.9278 20.5662 26.6777C21.2595 26.4321 21.667 26.2044 21.9629 25.9331C22.12 25.788 22.2627 25.632 22.391 25.4653C22.1798 25.4358 21.9695 25.4004 21.7603 25.3593C20.9954 25.2097 20.0756 24.9685 18.943 24.6705L18.8769 24.6537C17.6259 24.3244 16.6344 24.0643 15.8547 23.7874C15.0567 23.5049 14.4056 23.1823 13.8694 22.69C13.0887 21.9728 12.5424 21.0446 12.2997 20.0229C12.1335 19.3218 12.1733 18.6073 12.3224 17.789C12.4681 16.9874 12.7345 16.015 13.0692 14.7881L13.5632 12.9807ZM20.3784 7.77718C19.6521 7.64879 19.1831 7.64656 18.7881 7.73699C18.0755 7.90013 17.4282 8.26688 16.9281 8.79086C16.4318 9.30999 16.1256 10.1138 15.5951 12.0206L15.3185 13.0276L14.7289 15.1845C14.3817 16.4571 14.1347 17.3614 14.0037 18.0837C13.8728 18.7949 13.8706 19.2559 13.9628 19.6433C14.1291 20.3422 14.5031 20.9771 15.0373 21.4675C15.3333 21.7399 15.7408 21.9665 16.4341 22.2133C17.1376 22.4622 18.0596 22.7045 19.3573 23.0461C20.5241 23.3531 21.3892 23.5797 22.0927 23.7159C22.7928 23.8533 23.2686 23.8867 23.6579 23.8399C23.7429 23.8287 23.8249 23.8146 23.9038 23.7974C24.6164 23.6343 25.2637 23.2675 25.7638 22.7436C26.0416 22.4533 26.2738 22.0536 26.5242 21.3737C26.7781 20.6838 27.0251 19.7795 27.3734 18.5068L27.9631 16.35C28.3103 15.0773 28.5573 14.173 28.6882 13.4507C28.818 12.7395 28.8214 12.2785 28.7292 11.8911C28.5628 11.1922 28.1889 10.5573 27.6546 10.0669C27.3586 9.7945 26.9511 9.56787 26.2579 9.32115C25.5532 9.07219 24.6323 8.82994 23.3346 8.48832C22.0369 8.14782 21.1149 7.90556 20.3784 7.77718ZM17.6578 15.5517C17.6868 15.4455 17.7369 15.3459 17.8052 15.2587C17.8736 15.1715 17.9587 15.0983 18.0559 15.0434C18.153 14.9884 18.2602 14.9528 18.3714 14.9385C18.4826 14.9242 18.5956 14.9315 18.7039 14.9601L24.202 16.4047C24.4147 16.4674 24.594 16.6089 24.7021 16.7991C24.8101 16.9894 24.8383 17.2134 24.7807 17.4237C24.7231 17.6341 24.5842 17.8141 24.3935 17.9256C24.2028 18.0372 23.9753 18.0715 23.7592 18.0212L18.2611 16.5766C18.0426 16.519 17.8563 16.3788 17.7432 16.1866C17.6301 15.9944 17.5994 15.7661 17.6578 15.5517ZM16.7733 18.7871C16.8023 18.6807 16.8525 18.581 16.9209 18.4937C16.9893 18.4064 17.0745 18.3331 17.1718 18.2782C17.2691 18.2232 17.3764 18.1876 17.4878 18.1734C17.5991 18.1592 17.7122 18.1667 17.8206 18.1954L21.1183 19.0617C21.337 19.1191 21.5235 19.2594 21.6368 19.4517C21.75 19.644 21.7808 19.8726 21.7222 20.0871C21.6636 20.3016 21.5206 20.4845 21.3245 20.5956C21.1284 20.7067 20.8954 20.7368 20.6766 20.6793L17.3778 19.8119C17.1593 19.7543 16.973 19.6141 16.8599 19.4219C16.7467 19.2298 16.716 19.0014 16.7744 18.7871" fill="#606060"/>
</svg>
