<svg width="18" height="18" viewBox="0 0 18 18" fill="none" xmlns="http://www.w3.org/2000/svg">
<path d="M13.9078 2.45391L11.4539 0H9.40781L11.8617 2.45391H13.9078ZM0.819141 0H0V2.45391H3.27305L0.819141 0ZM8.59219 2.45391L6.13477 0H4.08867L6.54258 2.45391H8.59219ZM14.727 5.72695H11.4539L13.9078 3.27305H11.8617L9.40781 5.72695H6.13477L8.58867 3.27305H6.54258L4.08867 5.72695H0.819141L3.27305 3.27305H0V16.3652C0 17.2652 0.734766 18 1.63477 18H16.3617C17.2652 18 17.9965 17.2652 17.9965 16.3652V3.27305H17.1773L14.727 5.72695ZM6.54609 15.5461V8.18086L13.0922 11.8617L6.54609 15.5461ZM14.727 0L17.1809 2.45391H18V0H14.727Z" fill="#678498"/>
</svg>
