<svg width="20" height="20" viewBox="0 0 20 20" fill="none" xmlns="http://www.w3.org/2000/svg">
<path d="M6.14182 0.0464592C5.91126 0.120708 5.7354 0.237944 5.54392 0.445059C5.25865 0.757687 5.21566 0.898369 5.20003 1.60178L5.1844 2.21922H2.71074H0.233165L0.123746 2.31301L0.0143261 2.4068L0.00260258 4.37635C-0.0052131 6.04109 0.00260259 6.38498 0.0534045 6.61554C0.131561 6.97506 0.291783 7.30723 0.51453 7.58078L0.698198 7.80352L0.706014 11.2932L0.717737 14.7829L0.842788 15.0369C1.00301 15.3613 1.27265 15.6309 1.597 15.7912L1.85101 15.9162L5.12187 15.9279L8.39664 15.9397V17.577V19.2183H7.9277C7.47049 19.2183 7.45876 19.2222 7.33762 19.3277C7.23602 19.4215 7.21257 19.4684 7.21257 19.6091C7.21257 19.7498 7.23602 19.7967 7.33762 19.8905L7.45876 19.9999H13.5784C20.2296 19.9999 19.8544 20.0116 19.956 19.785C20.0147 19.656 20.0147 19.5622 19.956 19.4333C19.8779 19.2613 19.7411 19.2183 19.2448 19.2183H18.7954L18.7837 16.5532C18.772 13.8919 18.772 13.8841 18.686 13.6692C18.4593 13.1182 17.9396 12.7274 17.3417 12.6649L17.1111 12.6414V10.2225V7.80743L17.287 7.58859C17.5175 7.31114 17.6465 7.04931 17.7403 6.68197C17.8067 6.41233 17.8145 6.23648 17.8145 4.45841C17.8145 2.39507 17.8106 2.3599 17.6231 2.2583C17.5723 2.23485 16.6969 2.21922 15.0869 2.21922H12.6249L12.6093 1.60178C12.5976 1.02733 12.5898 0.972618 12.4921 0.773319C12.3553 0.495861 12.113 0.253576 11.8395 0.1168L11.6206 0.0112896L8.96328 0.00347328C6.85305 -0.00434113 6.27078 0.00738144 6.14182 0.0464592ZM11.5229 0.84366C11.5972 0.87883 11.6988 0.96871 11.7457 1.04296C11.8277 1.1641 11.8355 1.21881 11.8355 1.69557V2.21922H8.90466H5.97378V1.69557C5.97378 1.21881 5.9816 1.1641 6.06366 1.04296C6.25124 0.761595 6.13791 0.773319 8.90466 0.773319C11.1908 0.773319 11.3979 0.777225 11.5229 0.84366ZM17.0252 4.7515L17.0134 6.50221L16.8649 6.79921C16.6422 7.25643 16.2631 7.54561 15.7629 7.65112C15.6379 7.67847 14.743 7.68629 13.2814 7.68238L10.9954 7.67066L10.9758 7.30723C10.9563 6.96725 10.9485 6.93598 10.8469 6.8461L10.7374 6.75232H8.90466H7.07189L6.96247 6.8461C6.86086 6.93598 6.85305 6.96725 6.83351 7.30723L6.81397 7.67066L4.52788 7.68238C3.06635 7.68629 2.17145 7.67847 2.0464 7.65112C1.5462 7.54561 1.16714 7.25643 0.944392 6.79921L0.795894 6.50221L0.784171 4.7515L0.772447 3.00079H8.90466H17.0369L17.0252 4.7515ZM10.1943 8.08098V8.62808H8.90466H7.61508V8.08098V7.53388H8.90466H10.1943V8.08098ZM1.73378 8.38189C1.90963 8.44441 2.19099 8.45223 4.38329 8.46395L6.83351 8.47567V8.81956C6.83351 9.1361 6.84132 9.17127 6.9312 9.26115C6.98591 9.31586 7.08361 9.37057 7.15004 9.3862C7.31026 9.41746 10.4991 9.41746 10.6593 9.3862C10.7257 9.37057 10.8234 9.31586 10.8781 9.26115C10.968 9.17127 10.9758 9.1361 10.9758 8.81956V8.47567L13.4299 8.46004C15.5871 8.44832 15.9075 8.4405 16.0951 8.38189C16.2123 8.34671 16.3139 8.31545 16.3217 8.31545C16.3257 8.31545 16.3296 9.29241 16.3296 10.4843V12.6532H15.1572H13.9849V12.5242C13.9849 12.4109 14.0044 12.3913 14.1763 12.3132C14.4186 12.1998 14.657 11.9693 14.7938 11.7075C14.8915 11.5199 14.9032 11.4613 14.9032 11.1096C14.9032 10.6054 14.8602 10.5156 14.2936 9.85514C13.8481 9.33149 13.7582 9.25724 13.5941 9.25333C13.4456 9.25333 13.3596 9.32758 12.9063 9.85123C12.3709 10.4765 12.2849 10.6484 12.2849 11.1096C12.2849 11.4144 12.3006 11.4886 12.3944 11.6801C12.5155 11.9341 12.7695 12.1842 13.0274 12.3093C13.1837 12.3835 13.2033 12.4109 13.2033 12.5242V12.6532H11.5151C9.68232 12.6532 9.60417 12.661 9.2212 12.872C9.11178 12.9306 8.94374 13.0635 8.84995 13.1612C8.50216 13.5324 8.39664 13.8802 8.39664 14.6344V15.1542H5.25083C2.49581 15.1542 2.08548 15.1464 1.95652 15.0956C1.77285 15.0174 1.6478 14.9002 1.55402 14.7165C1.48367 14.5758 1.47977 14.439 1.47977 11.4417C1.47977 9.72227 1.49149 8.31545 1.51103 8.31545C1.52666 8.31545 1.62826 8.34671 1.73378 8.38189ZM13.8168 10.4921C14.1138 10.8438 14.1412 10.8907 14.1412 11.1174C14.1412 11.2893 14.1216 11.344 14.02 11.4613C13.8872 11.6137 13.6605 11.6918 13.4886 11.6527C13.1017 11.559 12.9258 11.1213 13.1486 10.7969C13.2697 10.6172 13.5667 10.2694 13.598 10.2694C13.6097 10.2694 13.7074 10.371 13.8168 10.4921ZM17.5215 13.509C17.6074 13.5481 17.7247 13.6301 17.7833 13.6926C18.0177 13.9427 18.0099 13.8607 18.0099 16.6587V19.2183H13.5941H9.17821V16.6665V14.1186L9.272 13.9193C9.3697 13.7122 9.54164 13.552 9.74485 13.4816C9.82301 13.4543 11.1009 13.4386 13.6136 13.4386C17.1854 13.4347 17.373 13.4386 17.5215 13.509Z" fill="#175572"/>
<path d="M7.90006 4.11407C7.54444 4.29383 7.36468 4.68462 7.45847 5.07931C7.521 5.33332 7.78673 5.61468 8.02902 5.68893C8.24004 5.75146 9.56089 5.75146 9.768 5.69284C10.1861 5.56779 10.4597 5.09103 10.3503 4.6768C10.2838 4.41498 10.1314 4.2274 9.90869 4.11407C9.7133 4.02029 9.68594 4.01638 8.90437 4.01638C8.1228 4.01638 8.09545 4.02029 7.90006 4.11407Z" fill="#175572"/>
<path d="M14.3646 14.4792C14.1379 14.5574 13.8214 14.8309 13.7002 15.0537C13.6182 15.2061 13.6143 15.253 13.6143 16.3276C13.6143 17.3945 13.6182 17.4492 13.7002 17.5977C13.9699 18.1018 14.5678 18.348 15.0992 18.1838C15.3884 18.0901 15.6971 17.8126 15.8261 17.5312C15.916 17.3319 15.9199 17.2929 15.9199 16.3276C15.9199 15.3624 15.916 15.3233 15.8261 15.124C15.576 14.573 14.9351 14.2916 14.3646 14.4792ZM14.9742 15.2725C15.1266 15.3936 15.1579 15.5734 15.1579 16.3276C15.1579 17.2811 15.0992 17.4414 14.7397 17.4414C14.5951 17.4414 14.5482 17.4218 14.4701 17.3319C14.3763 17.2225 14.3763 17.2147 14.3763 16.3354C14.3763 15.5812 14.3841 15.4327 14.4388 15.3585C14.56 15.1865 14.814 15.1475 14.9742 15.2725Z" fill="#175572"/>
<path d="M11.5035 14.4958C11.2143 14.66 11.2183 15.0429 11.5113 15.1914C11.5582 15.2149 11.6833 15.2344 11.7927 15.2344H11.992V16.524C11.992 17.9269 12.0037 18.0168 12.203 18.1457C12.3437 18.2395 12.5704 18.2005 12.6876 18.0676L12.7736 17.966V16.3286V14.6912L12.6798 14.5818C12.586 14.4724 12.5782 14.4724 12.0819 14.4607C11.7614 14.4567 11.5543 14.4685 11.5035 14.4958Z" fill="#175572"/>
</svg>
